<svg width="96" height="110" viewBox="0 0 96 110" fill="none" xmlns="http://www.w3.org/2000/svg">
<path d="M23.7877 22.0301C23.7877 23.1135 23.5853 24.0467 23.1807 24.8298C22.7892 25.613 22.2605 26.2786 21.5949 26.8268C20.9292 27.375 20.1591 27.8253 19.2846 28.1777C18.4232 28.5171 17.5226 28.7846 16.5828 28.9804C15.6431 29.1762 14.6968 29.3067 13.744 29.372C12.8042 29.4372 11.9232 29.4699 11.1009 29.4699C10.2917 29.4699 9.4498 29.4372 8.5753 29.372C7.71386 29.3198 6.85241 29.2219 5.99096 29.0783C5.12952 28.9347 4.28112 28.7455 3.44578 28.5105C2.61044 28.2626 1.82078 27.9558 1.07681 27.5904L1.03765 2.37349C1.76857 2.07329 2.54518 1.80572 3.36747 1.57078C4.18976 1.32279 5.0251 1.12048 5.87349 0.963855C6.73494 0.794176 7.58986 0.67018 8.43825 0.591867C9.28665 0.500502 10.1089 0.454819 10.9051 0.454819C11.8318 0.454819 12.7651 0.513554 13.7048 0.631024C14.6576 0.748494 15.5713 0.944277 16.4458 1.21837C17.3203 1.49247 18.136 1.85141 18.8931 2.29518C19.6501 2.7259 20.3092 3.26104 20.8705 3.9006C21.4448 4.54016 21.8886 5.28414 22.2018 6.13253C22.5281 6.98092 22.6913 7.95984 22.6913 9.06928C22.6913 9.8002 22.5868 10.4854 22.378 11.125C22.1692 11.7646 21.869 12.3389 21.4774 12.8479C21.0858 13.3569 20.6094 13.7942 20.0482 14.1596C19.4869 14.512 18.8539 14.7731 18.1491 14.9428C18.9975 15.1647 19.7676 15.491 20.4593 15.9217C21.1642 16.3524 21.758 16.8745 22.241 17.488C22.7369 18.1014 23.1155 18.7932 23.3765 19.5633C23.6506 20.3333 23.7877 21.1556 23.7877 22.0301ZM13.8419 10.8705C13.8419 10.492 13.7636 10.1722 13.6069 9.91114C13.4503 9.63705 13.2545 9.41516 13.0196 9.24548C12.7977 9.0758 12.5497 8.95181 12.2756 8.87349C12.0146 8.79518 11.7796 8.75602 11.5708 8.75602C11.3097 8.75602 11.0552 8.79518 10.8072 8.87349C10.5592 8.95181 10.3178 9.04317 10.0828 9.14759L9.96536 13.494C10.2656 13.494 10.6376 13.4679 11.0813 13.4157C11.5251 13.3635 11.9493 13.2525 12.3539 13.0828C12.7716 12.9001 13.124 12.6391 13.4111 12.2997C13.6983 11.9473 13.8419 11.4709 13.8419 10.8705ZM11.0617 17.253C10.6832 17.253 10.3178 17.2922 9.96536 17.3705L9.88705 21.8343C10.0828 21.8735 10.2721 21.9127 10.4548 21.9518C10.6506 21.9779 10.8399 21.991 11.0226 21.991C11.2967 21.991 11.5969 21.9649 11.9232 21.9127C12.2495 21.8474 12.5562 21.7299 12.8434 21.5602C13.1305 21.3775 13.3655 21.136 13.5482 20.8358C13.744 20.5356 13.8419 20.1376 13.8419 19.6416C13.8419 19.1456 13.744 18.741 13.5482 18.4277C13.3655 18.1145 13.137 17.873 12.863 17.7033C12.5889 17.5206 12.2887 17.4031 11.9623 17.3509C11.636 17.2856 11.3358 17.253 11.0617 17.253ZM46.3027 13.1807C46.3027 14.3163 46.2244 15.4518 46.0678 16.5873C43.8358 16.7309 41.617 16.9659 39.4111 17.2922C37.2053 17.6054 34.9995 17.9187 32.7937 18.2319C33.133 19.1717 33.6616 19.9222 34.3795 20.4834C35.1104 21.0447 35.9784 21.3253 36.9834 21.3253C37.5055 21.3253 38.0733 21.2274 38.6867 21.0316C39.3133 20.8358 39.9332 20.5944 40.5467 20.3072C41.1601 20.007 41.7475 19.6872 42.3087 19.3479C42.87 19.0085 43.3529 18.7018 43.7575 18.4277L42.8178 27.3163C42.3087 27.7078 41.754 28.0407 41.1536 28.3148C40.5663 28.5889 39.9528 28.8107 39.3133 28.9804C38.6737 29.1501 38.0276 29.2741 37.375 29.3524C36.7224 29.4307 36.0828 29.4699 35.4563 29.4699C34.1642 29.4699 32.9829 29.2937 31.9127 28.9413C30.8424 28.5889 29.87 28.0994 28.9955 27.4729C28.134 26.8333 27.377 26.0828 26.7244 25.2214C26.0718 24.3599 25.5301 23.4202 25.0994 22.4021C24.6687 21.384 24.3424 20.3072 24.1205 19.1717C23.8986 18.0361 23.7877 16.8876 23.7877 15.7259C23.7877 14.512 23.8986 13.2982 24.1205 12.0843C24.3424 10.8705 24.6752 9.70231 25.119 8.57982C25.5758 7.45733 26.1436 6.41968 26.8223 5.46687C27.5141 4.501 28.3168 3.65914 29.2304 2.94126C30.1441 2.22339 31.1752 1.66215 32.3238 1.25753C33.4854 0.852911 34.7646 0.650602 36.1611 0.650602C37.3228 0.650602 38.38 0.813755 39.3328 1.14006C40.2987 1.45331 41.1536 1.89709 41.8976 2.47139C42.6546 3.03263 43.3072 3.70482 43.8554 4.48795C44.4167 5.27108 44.8735 6.13253 45.2259 7.07229C45.5914 7.999 45.8589 8.98444 46.0286 10.0286C46.2113 11.0597 46.3027 12.1104 46.3027 13.1807ZM38.4714 12.1627C38.4714 11.7972 38.4322 11.4252 38.3539 11.0467C38.2756 10.6551 38.1451 10.3027 37.9623 9.98946C37.7927 9.6762 37.5643 9.42169 37.2771 9.2259C36.99 9.01707 36.631 8.91265 36.2003 8.91265C35.6782 8.91265 35.2149 9.05622 34.8102 9.34337C34.4187 9.61747 34.0793 9.96988 33.7922 10.4006C33.505 10.8183 33.2701 11.2751 33.0873 11.7711C32.9046 12.2671 32.7676 12.7239 32.6762 13.1416L38.4714 12.5934V12.1627ZM67.6627 18.9759C67.6627 20.7641 67.3494 22.3107 66.7229 23.616C66.1094 24.9081 65.261 25.9784 64.1777 26.8268C63.1074 27.6621 61.8479 28.2821 60.3991 28.6867C58.9634 29.0783 57.4167 29.2741 55.759 29.2741C55.1195 29.2741 54.4147 29.1893 53.6446 29.0196C52.8876 28.8499 52.1175 28.6411 51.3343 28.3931C50.5512 28.132 49.7942 27.8579 49.0633 27.5708C48.3454 27.2706 47.7058 26.99 47.1446 26.7289L48.006 19.0542C49.1155 19.7199 50.3424 20.2289 51.6867 20.5813C53.0442 20.9207 54.3755 21.0904 55.6807 21.0904C55.9287 21.0904 56.2289 21.0838 56.5813 21.0708C56.9337 21.0447 57.2666 20.9859 57.5798 20.8946C57.9061 20.7902 58.1802 20.6401 58.4021 20.4443C58.624 20.2485 58.7349 19.9679 58.7349 19.6024C58.7349 19.3544 58.6566 19.1456 58.5 18.9759C58.3434 18.7932 58.1411 18.6496 57.8931 18.5452C57.6451 18.4277 57.3645 18.3429 57.0512 18.2907C56.738 18.2254 56.4312 18.1797 56.131 18.1536C55.8308 18.1275 55.5502 18.1145 55.2892 18.1145C55.0281 18.1145 54.8193 18.1145 54.6627 18.1145C53.5402 18.1145 52.5156 17.9383 51.5889 17.5858C50.6752 17.2334 49.8855 16.7374 49.2199 16.0979C48.5673 15.4453 48.0582 14.6621 47.6928 13.7485C47.3273 12.8218 47.1446 11.7972 47.1446 10.6747C47.1446 9.13454 47.4513 7.75753 48.0648 6.54367C48.6913 5.31677 49.5201 4.27912 50.5512 3.43072C51.5954 2.56928 52.7897 1.91014 54.134 1.45331C55.4784 0.996486 56.8685 0.768072 58.3042 0.768072C58.9438 0.768072 59.6029 0.794176 60.2816 0.846385C60.9603 0.885542 61.6325 0.963855 62.2982 1.08133C62.9769 1.19879 63.636 1.3489 64.2756 1.53163C64.9152 1.71436 65.5221 1.94277 66.0964 2.21687L65.3524 10.1657C64.4649 9.86546 63.5316 9.61747 62.5527 9.42169C61.5868 9.21285 60.6406 9.10843 59.7139 9.10843C59.5442 9.10843 59.3223 9.11496 59.0482 9.12801C58.7871 9.12801 58.5065 9.14759 58.2063 9.18675C57.9192 9.21285 57.6255 9.25853 57.3253 9.32379C57.0251 9.38906 56.7575 9.48042 56.5226 9.59789C56.2877 9.70231 56.0984 9.84588 55.9548 10.0286C55.8112 10.2113 55.746 10.4267 55.759 10.6747C55.7721 10.9618 55.8765 11.1837 56.0723 11.3404C56.2811 11.497 56.5422 11.6145 56.8554 11.6928C57.1817 11.758 57.5341 11.7907 57.9127 11.7907C58.3042 11.7907 58.6893 11.7841 59.0678 11.7711C59.4463 11.745 59.7987 11.7254 60.125 11.7123C60.4513 11.6862 60.7189 11.6797 60.9277 11.6928C61.9719 11.758 62.9116 11.9799 63.747 12.3584C64.5823 12.7369 65.2871 13.2395 65.8614 13.866C66.4488 14.4925 66.8926 15.243 67.1928 16.1175C67.506 16.9789 67.6627 17.9317 67.6627 18.9759ZM89.1988 1.39458L89.003 9.69578L83.1687 9.93072L82.4639 28.0994L74.2018 28.5301L73.4578 10.3614L67.6235 10.6747L67.8584 1.43373L89.1988 1.39458ZM23.8072 90.9488C23.8072 92.2149 23.618 93.3373 23.2395 94.3163C22.8609 95.2952 22.3389 96.1566 21.6732 96.9006C21.0206 97.6315 20.2505 98.2515 19.363 98.7605C18.4754 99.2565 17.5226 99.6677 16.5045 99.994C15.4995 100.307 14.4553 100.542 13.372 100.699C12.2887 100.842 11.2249 100.921 10.1807 100.934V109.274H1.05723C1.05723 107.786 1.05723 106.337 1.05723 104.928C1.07028 103.518 1.07681 102.121 1.07681 100.738C1.08986 99.3414 1.09639 97.9383 1.09639 96.5286C1.10944 95.119 1.12249 93.6637 1.13554 92.1627C1.16165 90.5703 1.16817 88.9779 1.15512 87.3855C1.14207 85.7932 1.1747 84.1878 1.25301 82.5693C2.92369 82.0733 4.59438 81.7013 6.26506 81.4533C7.93574 81.2053 9.65863 81.0813 11.4337 81.0813C12.4388 81.0813 13.4438 81.1662 14.4488 81.3358C15.4538 81.4925 16.4132 81.747 17.3268 82.0994C18.2535 82.4518 19.1084 82.8956 19.8916 83.4307C20.6878 83.9528 21.373 84.5793 21.9473 85.3102C22.5216 86.0412 22.9719 86.8765 23.2982 87.8163C23.6376 88.756 23.8072 89.8002 23.8072 90.9488ZM15.1145 91.6145C15.1145 90.7661 14.8534 90.1069 14.3313 89.637C13.8223 89.1541 13.1566 88.9127 12.3343 88.9127C12.0602 88.9127 11.7731 88.9388 11.4729 88.991C11.1857 89.0301 10.9116 89.0823 10.6506 89.1476L10.4157 94.8645C10.5984 94.8906 10.7746 94.9036 10.9443 94.9036C11.114 94.9036 11.2902 94.9036 11.4729 94.9036C11.9428 94.9036 12.3931 94.8253 12.8238 94.6687C13.2676 94.512 13.6591 94.2902 13.9985 94.003C14.3379 93.7028 14.6054 93.3569 14.8012 92.9654C15.01 92.5607 15.1145 92.1104 15.1145 91.6145ZM42.0934 98.6235L41.2711 107.316L24.7861 108.608L25.4127 80.6506H35.5934L34.1446 98.6235H42.0934ZM67.7018 107.316L57.991 108.569L56.8163 104.145H52.3524L51.3735 108.569L41.3886 107.59L49.1807 81.512L60.0663 80.9639L67.7018 107.316ZM56.1114 98.1536L54.6235 91.3404L53.1747 98.1536H56.1114ZM92.4096 99.0934C92.4096 100.568 92.3901 102.03 92.3509 103.479C92.3248 104.915 92.2791 106.363 92.2139 107.825L80.9367 107.63C81.3283 105.319 81.6677 103.016 81.9548 100.718C82.242 98.4081 82.3855 96.0783 82.3855 93.7289C82.3855 93.5592 82.379 93.2851 82.366 92.9066C82.3529 92.5281 82.3268 92.1039 82.2876 91.634C82.2485 91.1511 82.1898 90.6616 82.1114 90.1657C82.0462 89.6566 81.9483 89.1933 81.8178 88.7756C81.7003 88.3579 81.5502 88.0186 81.3675 87.7575C81.1978 87.4834 80.989 87.3464 80.741 87.3464C80.2972 87.3464 79.9187 87.4769 79.6054 87.738C79.3052 87.999 79.0507 88.3384 78.8419 88.756C78.6461 89.1606 78.4895 89.6175 78.372 90.1265C78.2545 90.6355 78.1632 91.1446 78.0979 91.6536C78.0457 92.1627 78.0065 92.6456 77.9804 93.1024C77.9674 93.5462 77.9608 93.9116 77.9608 94.1988C77.8956 96.509 77.8434 98.8062 77.8042 101.09C77.7651 103.361 77.7128 105.659 77.6476 107.982L67.6626 108.413C67.9237 103.805 68.1717 99.2239 68.4066 94.6687C68.6546 90.1135 68.8504 85.5321 68.994 80.9247L78.2349 80.4548L78.1566 83.5873C78.5221 83.1436 78.9137 82.7259 79.3313 82.3343C79.762 81.9428 80.2189 81.6099 80.7018 81.3358C81.1847 81.0487 81.6938 80.8268 82.2289 80.6702C82.7771 80.5005 83.3514 80.4157 83.9518 80.4157C85.0612 80.4157 86.0336 80.5984 86.869 80.9639C87.7043 81.3293 88.4222 81.8253 89.0226 82.4518C89.623 83.0783 90.1255 83.8223 90.5301 84.6837C90.9347 85.5321 91.261 86.4393 91.509 87.4051C91.757 88.371 91.9463 89.3825 92.0768 90.4398C92.2073 91.4839 92.2922 92.5151 92.3313 93.5331C92.3835 94.5512 92.4096 95.5366 92.4096 96.4895C92.4096 97.4423 92.4096 98.3102 92.4096 99.0934Z" fill="white"/>
<path d="M21.7319 41.3946L21.5361 49.6958L15.7018 49.9307L14.997 68.0994L6.73494 68.5301L5.99096 50.3614L0.156627 50.6747L0.391566 41.4337L21.7319 41.3946ZM46.6551 54.003C46.6551 55.1908 46.5181 56.3394 46.244 57.4488C45.9699 58.5452 45.5718 59.5763 45.0497 60.5422C44.5407 61.508 43.9142 62.3956 43.1702 63.2048C42.4393 64.001 41.6104 64.6862 40.6837 65.2605C39.7701 65.8348 38.7716 66.2851 37.6883 66.6114C36.6049 66.9247 35.4563 67.0813 34.2425 67.0813C33.0678 67.0813 31.9453 66.9312 30.875 66.631C29.8178 66.3308 28.8258 65.9132 27.8991 65.378C26.9724 64.8298 26.1305 64.1772 25.3735 63.4202C24.6295 62.6501 23.99 61.8017 23.4548 60.875C22.9327 59.9352 22.5216 58.9302 22.2214 57.8599C21.9342 56.7897 21.7907 55.6737 21.7907 54.512C21.7907 53.3765 21.9277 52.2671 22.2018 51.1837C22.4759 50.0873 22.8675 49.0562 23.3765 48.0904C23.8986 47.1245 24.5251 46.2369 25.256 45.4277C25.9869 44.6185 26.8027 43.9202 27.7033 43.3328C28.617 42.7455 29.6024 42.2887 30.6596 41.9623C31.7169 41.636 32.8328 41.4729 34.0075 41.4729C35.9001 41.4729 37.623 41.7666 39.1762 42.3539C40.7425 42.9413 42.0738 43.7831 43.1702 44.8795C44.2796 45.9629 45.1345 47.2811 45.7349 48.8343C46.3484 50.3745 46.6551 52.0974 46.6551 54.003ZM37.9624 54.512C37.9624 53.9508 37.8775 53.4091 37.7078 52.887C37.5512 52.3519 37.3163 51.882 37.003 51.4774C36.6898 51.0597 36.2982 50.7269 35.8283 50.4789C35.3715 50.2179 34.8429 50.0873 34.2425 50.0873C33.629 50.0873 33.0808 50.1983 32.5979 50.4202C32.115 50.6421 31.6973 50.9488 31.3449 51.3404C31.0055 51.7189 30.7445 52.1692 30.5617 52.6913C30.379 53.2003 30.2877 53.742 30.2877 54.3163C30.2877 54.8645 30.366 55.4127 30.5226 55.9608C30.6792 56.509 30.9142 57.005 31.2274 57.4488C31.5407 57.8926 31.9257 58.2515 32.3825 58.5256C32.8524 58.7997 33.3941 58.9367 34.0075 58.9367C34.621 58.9367 35.1692 58.8193 35.6521 58.5843C36.1481 58.3363 36.5658 58.01 36.9051 57.6054C37.2445 57.1878 37.5055 56.7113 37.6883 56.1762C37.871 55.6411 37.9624 55.0863 37.9624 54.512ZM71.363 41.4337C70.7756 46.0281 70.2731 50.6029 69.8554 55.1581C69.4378 59.7003 69.0397 64.2751 68.6611 68.8825L60.634 69.4699L60.9864 66.4548C60.7254 66.755 60.4187 67.0161 60.0663 67.238C59.7269 67.4598 59.3614 67.6426 58.9699 67.7861C58.5783 67.9167 58.1737 68.0146 57.756 68.0798C57.3384 68.132 56.9403 68.1516 56.5617 68.1386C55.6742 68.1255 54.8389 67.9558 54.0557 67.6295C53.2726 67.2902 52.5547 66.8464 51.9021 66.2982C51.2495 65.7369 50.6621 65.0909 50.1401 64.3599C49.618 63.616 49.1742 62.8394 48.8087 62.0301C48.4563 61.2078 48.1822 60.3725 47.9864 59.5241C47.8037 58.6757 47.7123 57.8534 47.7123 57.0572C47.7123 55.8825 47.7319 54.6687 47.7711 53.4157C47.8233 52.1496 47.9081 50.8835 48.0256 49.6175C48.1431 48.3514 48.2932 47.0984 48.4759 45.8584C48.6717 44.6185 48.9132 43.4307 49.2003 42.2952C50.7927 42.3735 52.3916 42.4453 53.997 42.5105C55.6024 42.5758 57.2013 42.5954 58.7937 42.5693C58.4935 43.7048 58.1933 44.8469 57.8931 45.9955C57.6059 47.131 57.3449 48.2796 57.1099 49.4413C56.875 50.5899 56.6857 51.745 56.5422 52.9066C56.3986 54.0683 56.3268 55.243 56.3268 56.4307C56.3268 56.7048 56.3399 57.0964 56.366 57.6054C56.3921 58.1145 56.4573 58.617 56.5617 59.113C56.6792 59.6089 56.8489 60.0462 57.0708 60.4247C57.3057 60.7902 57.632 60.9729 58.0497 60.9729C58.5457 60.9729 58.9895 60.7641 59.381 60.3464C59.7726 59.9157 60.1185 59.3414 60.4187 58.6235C60.7189 57.9056 60.9734 57.0768 61.1822 56.137C61.4041 55.1973 61.5868 54.2184 61.7304 53.2003C61.887 52.1692 62.011 51.1315 62.1024 50.0873C62.1938 49.0432 62.259 48.0643 62.2982 47.1506C62.3504 46.2239 62.383 45.3951 62.3961 44.6642C62.4222 43.9332 62.4352 43.3655 62.4352 42.9608C62.4352 42.6998 62.4287 42.4453 62.4157 42.1973C62.4026 41.9493 62.383 41.6948 62.3569 41.4337C63.2053 41.4598 64.0472 41.4794 64.8825 41.4925C65.7179 41.5055 66.5597 41.512 67.4081 41.512C68.0607 41.512 68.7134 41.512 69.366 41.512C70.0316 41.499 70.6973 41.4729 71.363 41.4337ZM95.4834 50.1265C95.4834 51.1446 95.3921 52.0713 95.2093 52.9066C95.0397 53.7289 94.7656 54.4859 94.387 55.1777C94.0085 55.8695 93.5191 56.509 92.9187 57.0964C92.3183 57.6837 91.5939 58.245 90.7455 58.7801L95.4051 67.0813L86.5949 68.8042L83.5798 60.4639L81.1521 60.5422L80.7997 68.6867H72.381C72.4463 65.7108 72.505 62.748 72.5572 59.7982C72.6225 56.8484 72.6943 53.8855 72.7726 50.9096C72.7987 49.4086 72.8248 47.9207 72.8509 46.4458C72.877 44.9709 72.9292 43.4829 73.0075 41.9819C73.9212 41.6426 74.8218 41.3619 75.7093 41.1401C76.5969 40.9182 77.4844 40.7485 78.372 40.631C79.2726 40.5005 80.1797 40.4157 81.0934 40.3765C82.0201 40.3243 82.9664 40.2982 83.9322 40.2982C85.4202 40.2982 86.8559 40.507 88.2395 40.9247C89.636 41.3293 90.8695 41.9428 91.9398 42.7651C93.01 43.5873 93.865 44.6119 94.5045 45.8389C95.1571 47.0658 95.4834 48.495 95.4834 50.1265ZM86.7123 50.753C86.7123 50.2048 86.634 49.7023 86.4774 49.2455C86.3338 48.7887 86.1119 48.3971 85.8117 48.0708C85.5246 47.7314 85.1591 47.4704 84.7154 47.2877C84.2846 47.0919 83.7756 46.994 83.1883 46.994C82.9272 46.994 82.6727 47.0136 82.4247 47.0527C82.1767 47.0788 81.9352 47.1245 81.7003 47.1898L81.387 54.4729H81.8569C82.4182 54.4729 82.9859 54.4011 83.5602 54.2575C84.1476 54.114 84.6697 53.8921 85.1265 53.5919C85.5964 53.2917 85.9749 52.9066 86.262 52.4367C86.5622 51.9669 86.7123 51.4056 86.7123 50.753Z" fill="#EC1F46"/>
</svg>
